PathFileType   4   (X/Y/Z)
DataRate	CameraRate	NumFrames	NumMarkers	Units	OrigDataRate	OrigDataStartFrame	OrigNumFrames
120.0	120.0	9	37	mm	120.0	87	173
Frame#	Time	midhip	hip_r	hip_l	knee_r	knee_l	ankle_r	ankle_l	midasis	asis_r	asis_l	psis_r	psis_l	epicondLat_r	epicondLat_l	epicondMed_r	epicondMed_l	malleolusLat_r	malleolusLat_l	malleolusMedv_r	malleolusMedv_l	neck	subclavicle_r	subclavicle_l	sternalnotch	xyphoidprocess	thighwand_r	thighwand_l	upperleg1_r	upperleg1_l	upperleg2_r	upperleg2_l	shankwand_r	shankwand_l	lowerleg1_r	lowerleg1_l	toe_r	toe_l
 	 	X1	Y1	Z1	X2	Y2	Z2	X3	Y3	Z3	X4	Y4	Z4	X5	Y5	Z5	X6	Y6	Z6	X7	Y7	Z7	X8	Y8	Z8	X9	Y9	Z9	X10	Y10	Z10	X11	Y11	Z11	X12	Y12	Z12	X13	Y13	Z13	X14	Y14	Z14	X15	Y15	Z15	X16	Y16	Z16	X17	Y17	Z17	X18	Y18	Z18	X19	Y19	Z19	X20	Y20	Z20	X21	Y21	Z21	X22	Y22	Z22	X23	Y23	Z23	X24	Y24	Z24	X25	Y25	Z25	X26	Y26	Z26	X27	Y27	Z27	X28	Y28	Z28	X29	Y29	Z29	X30	Y30	Z30	X31	Y31	Z31	X32	Y32	Z32	X33	Y33	Z33	X34	Y34	Z34	X35	Y35	Z35	X36	Y36	Z36	X37	Y37	Z37

	87	0.95000	-1148.872	605.386	242.386	-1147.453	614.881	300.895	-1141.087	621.162	183.791	-1225.762	325.543	289.224	-1031.478	340.481	213.143	-1406.219	83.907	277.469	-976.316	57.391	218.822	-1100.576	680.135	248.050	-1105.517	675.260	338.939	-1095.634	685.010	157.161	-1238.255	698.725	279.814	-1232.773	694.818	200.350	-1238.194	327.122	333.484	-1028.643	336.594	165.385	-1220.291	327.835	243.387	-1035.481	340.519	254.821	-1411.272	86.074	310.515	-984.069	55.249	187.333	-1404.440	95.056	249.567	-977.103	56.541	252.434	-1153.288	1013.482	246.702	-1068.537	933.062	279.246	-1082.171	931.516	190.001	-1086.572	947.847	243.874	-1067.328	807.035	238.172	-1085.648	377.719	301.250	-992.999	429.553	107.510	-1144.069	449.026	330.203	-1026.332	485.602	180.842	-1182.232	370.297	324.726	-1000.944	409.091	205.729	-1343.857	137.150	380.678	-906.774	183.075	244.005	-1317.714	202.028	324.300	-974.624	224.381	218.254	-1335.003	43.169	269.539	-889.222	40.525	221.190
	88	0.95833	-1142.766	606.810	241.725	-1141.316	616.157	300.168	-1134.842	622.602	183.079	-1219.324	326.330	289.954	-1027.611	340.975	212.360	-1403.129	86.820	278.760	-975.866	57.178	218.584	-1094.086	681.269	247.462	-1099.106	676.272	338.258	-1089.065	686.267	156.666	-1231.659	700.471	279.154	-1226.180	696.676	199.743	-1231.750	328.115	334.208	-1025.325	336.879	164.589	-1213.401	328.204	243.891	-1031.911	340.887	253.654	-1408.271	89.224	311.776	-983.648	55.069	187.100	-1400.931	98.405	251.089	-976.759	56.606	252.191	-1147.580	1015.195	246.059	-1062.385	935.293	278.399	-1076.212	933.724	189.094	-1080.540	949.925	243.053	-1060.575	809.299	237.202	-1079.007	378.677	301.712	-989.406	429.075	106.085	-1137.908	449.950	330.566	-1021.170	485.667	179.388	-1175.645	371.010	325.191	-996.812	408.851	204.056	-1340.177	140.047	382.084	-904.979	182.180	243.469	-1312.891	204.406	325.488	-972.464	224.178	217.435	-1333.605	43.447	270.287	-888.838	39.925	220.944
	89	0.96667	-1136.690	608.291	241.048	-1135.227	617.482	299.443	-1128.584	624.091	182.373	-1212.504	327.055	290.911	-1024.140	341.429	211.627	-1399.719	89.795	280.206	-975.496	57.021	218.382	-1087.639	682.467	246.902	-1092.785	677.347	337.587	-1082.493	687.586	156.217	-1225.110	702.209	278.464	-1219.641	698.580	199.073	-1224.985	329.077	335.140	-1022.324	337.156	163.852	-1206.163	328.283	244.805	-1028.614	341.414	252.794	-1404.968	92.449	313.185	-983.334	54.933	186.910	-1397.172	101.882	252.765	-976.715	56.624	252.043	-1141.943	1016.893	245.381	-1056.293	937.562	277.563	-1070.138	935.989	188.222	-1074.541	952.059	242.249	-1053.688	811.621	236.226	-1072.082	379.694	302.524	-985.933	428.606	104.823	-1131.536	450.916	331.100	-1016.330	485.952	178.232	-1168.828	371.590	325.981	-992.920	408.739	202.793	-1336.229	143.000	383.663	-903.385	181.374	242.890	-1307.722	206.795	326.903	-970.717	223.983	216.763	-1332.138	43.710	271.104	-888.552	39.494	220.795
	90	0.97500	-1130.610	609.791	240.335	-1129.198	618.828	298.707	-1122.351	625.606	181.658	-1205.314	327.692	292.098	-1021.064	341.841	210.974	-1395.983	92.807	281.786	-975.194	56.912	218.225	-1081.259	683.701	246.347	-1086.557	678.456	336.913	-1075.962	688.945	155.781	-1218.654	703.913	277.858	-1213.188	700.493	198.384	-1217.903	329.980	336.283	-1019.591	337.431	163.199	-1199.041	328.488	245.980	-1025.906	341.953	252.007	-1401.361	95.727	314.722	-983.111	54.837	186.772	-1393.127	105.345	254.551	-976.766	56.628	251.942	-1136.294	1018.605	244.682	-1050.063	939.868	276.805	-1063.954	938.295	187.409	-1068.598	954.207	241.461	-1046.583	813.995	235.294	-1064.868	380.758	303.663	-982.488	428.183	103.792	-1124.792	451.828	331.716	-1012.323	486.303	177.110	-1162.020	372.290	326.983	-989.593	408.731	201.847	-1332.024	145.990	385.403	-901.965	180.648	242.303	-1302.222	209.151	328.482	-969.262	223.904	216.210	-1330.587	43.967	271.993	-888.350	39.191	220.759
	91	0.98333	-1124.568	611.273	239.628	-1123.246	620.166	297.955	-1116.180	627.116	180.929	-1197.773	328.224	293.511	-1018.339	342.207	210.415	-1391.913	95.836	283.476	-974.951	56.834	218.112	-1074.970	684.941	245.784	-1080.432	679.570	336.232	-1069.509	690.313	155.336	-1212.355	705.566	277.447	-1206.844	702.378	197.708	-1210.514	330.804	337.636	-1017.066	337.700	162.644	-1191.540	328.662	247.258	-1023.697	342.624	251.449	-1397.447	99.038	316.360	-982.961	54.768	186.682	-1388.838	108.888	256.445	-976.742	56.644	251.871	-1130.647	1020.336	243.946	-1043.918	942.170	276.127	-1059.219	940.241	186.223	-1062.680	956.329	240.704	-1040.860	816.150	234.649	-1057.372	381.873	305.102	-979.020	427.814	103.008	-1117.841	452.642	332.537	-1008.453	486.659	176.160	-1154.926	373.025	328.143	-986.561	408.827	201.201	-1327.574	149.003	387.286	-900.690	179.983	241.743	-1296.321	211.402	330.212	-967.908	223.856	215.789	-1328.925	44.237	272.957	-888.214	38.975	220.825
	92	0.99167	-1118.666	612.714	239.014	-1117.394	621.476	297.192	-1110.099	628.588	180.190	-1189.903	328.642	295.141	-1015.901	342.528	209.951	-1387.503	98.871	285.250	-974.757	56.773	218.036	-1068.791	686.158	245.210	-1074.424	680.667	335.547	-1063.159	691.650	154.873	-1206.273	707.159	277.300	-1200.618	704.209	197.056	-1202.835	331.536	339.191	-1014.694	337.956	162.185	-1183.249	328.341	248.827	-1021.304	343.462	251.470	-1393.217	102.372	318.073	-982.865	54.717	186.631	-1384.184	112.339	258.396	-976.676	56.667	251.831	-1125.104	1021.947	243.178	-1038.183	944.362	275.355	-1052.074	942.779	185.822	-1056.803	958.379	239.980	-1033.283	818.605	233.567	-1049.611	383.052	306.813	-975.512	427.495	102.458	-1110.835	453.480	333.451	-1003.838	486.963	175.713	-1147.321	373.641	329.526	-983.187	408.929	200.947	-1322.883	152.024	389.290	-899.529	179.366	241.239	-1290.200	213.528	332.146	-966.500	223.738	215.503	-1327.108	44.557	273.989	-888.124	38.816	220.966
	93	1.00000	-1112.947	614.093	238.517	-1111.664	622.738	296.433	-1104.129	629.995	179.455	-1181.725	328.952	296.975	-1013.682	342.805	209.566	-1382.740	101.917	287.077	-974.602	56.721	217.986	-1062.735	687.322	244.634	-1068.548	681.725	334.871	-1056.923	692.919	154.398	-1200.456	708.692	277.433	-1194.510	705.964	196.425	-1194.882	332.171	340.936	-1012.428	338.192	161.805	-1174.239	327.495	250.752	-1019.201	344.118	251.448	-1388.656	105.727	319.830	-982.801	54.678	186.604	-1378.924	115.497	260.486	-976.656	56.677	251.832	-1119.580	1023.405	242.425	-1032.488	946.424	274.576	-1045.949	944.831	185.232	-1050.953	960.327	239.290	-1026.624	820.735	232.837	-1041.605	384.324	308.775	-971.971	427.218	102.105	-1103.713	454.332	334.369	-999.303	487.176	175.525	-1139.232	374.111	331.134	-979.986	408.906	200.843	-1317.946	155.035	391.383	-898.456	178.785	240.812	-1283.905	215.594	334.265	-965.131	223.566	215.260	-1325.069	44.977	275.085	-888.065	38.692	221.153
	94	1.00833	-1107.419	615.389	238.116	-1106.074	623.939	295.697	-1098.282	631.312	178.743	-1173.247	329.163	298.995	-1011.618	343.039	209.234	-1377.619	104.999	288.926	-974.476	56.674	217.948	-1056.810	688.409	244.074	-1062.817	682.727	334.220	-1050.804	694.091	153.929	-1194.917	710.164	277.792	-1188.515	707.633	195.802	-1186.668	332.712	342.851	-1010.229	338.405	161.478	-1164.783	326.093	253.522	-1017.599	344.447	251.151	-1383.746	109.117	321.603	-982.749	54.647	186.584	-1373.138	118.482	262.685	-976.689	56.667	251.866	-1114.024	1024.736	241.650	-1026.641	948.350	273.948	-1039.929	946.687	184.642	-1045.152	962.135	238.629	-1019.972	822.700	232.243	-1033.371	385.726	310.980	-968.411	426.986	101.905	-1096.552	455.123	335.389	-995.301	487.261	175.344	-1130.655	374.597	333.280	-977.197	408.643	200.786	-1312.736	158.007	393.524	-897.454	178.237	240.469	-1277.280	217.616	336.518	-963.839	223.414	215.054	-1322.722	45.569	276.249	-888.027	38.590	221.359
	95	1.01667	-1102.086	616.588	237.796	-1100.633	625.068	295.002	-1092.559	632.525	178.072	-1164.471	329.291	301.175	-1009.661	343.235	208.924	-1372.142	108.154	290.760	-974.371	56.632	217.910	-1051.018	689.405	243.549	-1057.236	683.662	333.612	-1044.799	695.148	153.485	-1189.614	711.570	278.253	-1182.621	709.215	195.169	-1178.197	333.166	344.908	-1008.069	338.599	161.175	-1155.001	324.328	257.117	-1015.965	344.611	250.793	-1378.469	112.560	323.361	-982.695	54.624	186.558	-1366.937	121.437	264.786	-976.726	56.678	251.891	-1108.538	1025.973	240.822	-1020.845	950.137	273.382	-1033.956	948.359	184.034	-1039.367	963.785	238.010	-1013.407	824.506	231.741	-1024.927	387.292	313.418	-964.846	426.807	101.813	-1089.366	455.965	336.522	-991.519	487.274	175.284	-1121.730	375.177	335.939	-974.479	408.348	200.783	-1307.206	160.900	395.663	-896.512	177.717	240.211	-1270.300	219.589	338.792	-962.561	223.363	214.909	-1319.964	46.413	277.498	-888.007	38.500	221.565
